<svg xmlns="http://www.w3.org/2000/svg" viewBox="0 0 100 100"><defs><style>.a{fill:#fff;}</style></defs><rect width="100" height="100"/><path class="a" d="M14.77,24.32V21.66a2.23,2.23,0,0,0,0-.37,2.75,2.75,0,0,0,.37,0h2c1.53,0,2.42.24,2.42,1.63,0,.9-.56,1.71-2.36,1.71H15.11l-.37,0A2.33,2.33,0,0,0,14.77,24.32Zm0,6.12V27.36a2,2,0,0,0,0-.36,2.51,2.51,0,0,0,.36,0h1.71c1.35,0,3,0,3,1.87,0,1.39-1.19,1.88-2.79,1.88H15.1a3.4,3.4,0,0,0-.35,0S14.77,30.62,14.77,30.44ZM9.9,19.67V32.5c0,.42,0,.56-.28.75a2.69,2.69,0,0,1-1,.29h0c-.05,0,0,.19,0,.19H19c4.38,0,6.22-1.74,6.22-4.45a3.41,3.41,0,0,0-2.78-3.69,0,0,0,0,1,0-.06,3.07,3.07,0,0,0,2.26-3.3c0-2.84-1.91-3.79-6.08-3.79h-10c-.05,0-.06.18,0,.19h0a2.8,2.8,0,0,1,1.06.29C9.92,19.1,9.9,19.25,9.9,19.67Z" transform="translate(14 14)"/><path class="a" d="M62.21,19.67c0-.42,0-.57.27-.75a2.85,2.85,0,0,1,1.06-.29h0c.05,0,0-.19,0-.19H55.88s-.05.18,0,.19h0a2.12,2.12,0,0,1,1,.29c.3.18.27.33.27.75v7.71a3,3,0,1,1-6,0V19.67c0-.42,0-.57.28-.75a2.28,2.28,0,0,1,1-.29h0c.05,0,0-.19,0-.19H45.18c-.06,0,0,.18,0,.19h0a.91.91,0,0,1,.6.17,1,1,0,0,1,.29.87v7.58c0,3.65,2,6.76,8.08,6.76s8.06-3.11,8.06-6.76Z" transform="translate(14 14)"/><path class="a" d="M39,33.73s.05-.18,0-.19h0A2.74,2.74,0,0,1,38,33.25c-.3-.19-.27-.33-.27-.75V27.63L43,19.77a3.78,3.78,0,0,1,.72-.86l.19-.14a1.11,1.11,0,0,1,.58-.14h0s.07-.19,0-.19H37.33c-.06,0,0,.19,0,.19h0c.35,0,.78,0,.71.5a38.78,38.78,0,0,1-2.83,4.59,1.45,1.45,0,0,0-.23.54,1.23,1.23,0,0,0-.23-.53c-1-1.53-2.77-4-2.83-4.6s.36-.5.71-.5h0c.05,0,.06-.19,0-.19h-7.5c-.05,0,0,.17,0,.19h0a2,2,0,0,1,.87.19l.19.13a3.44,3.44,0,0,1,.67.82l5.29,7.82V32.5c0,.42,0,.56-.27.75a2.74,2.74,0,0,1-1.06.29h0c-.05,0-.05.19,0,.19Z" transform="translate(14 14)"/><path class="a" d="M24.08,48.8a5.09,5.09,0,0,1-4,1.47l-2.26,0c-.55,0-1.23,0-1.88,0-.05,0-.06-.17,0-.19a2.5,2.5,0,0,0,1-.25c.2-.11.31-.36.31-3.28V44.38c0-2.92-.11-3.19-.31-3.28a2.5,2.5,0,0,0-1-.25c-.07,0-.06-.19,0-.19.65,0,1.33,0,1.88,0l2.58,0c3,0,5.14,2,5.14,4.69A5,5,0,0,1,24.08,48.8Zm-4.19-7.65c-.89,0-1.26.12-1.36.25a8.81,8.81,0,0,0-.22,2.94v2.21c0,1.9.13,2.64.32,2.85s.61.38,1.38.38c2.91,0,4.25-1.38,4.25-4.16A4.27,4.27,0,0,0,19.89,41.15Z" transform="translate(14 14)"/><path class="a" d="M33.84,50.27s-.06-.17,0-.19c.46,0,.74-.13.74-.36a13.56,13.56,0,0,0-1-3H30.47a11.47,11.47,0,0,0-.86,2.95c0,.26.21.4.85.46.06,0,0,.19,0,.19h-3c-.05,0-.08-.17,0-.19a2,2,0,0,0,.93-.28c.15-.12.42-.33,1.49-3.25l.78-2.17c.46-1.24.95-2.54,1.32-3.69,0-.11.48-.11.51,0,.44,1.29.83,2.34,1.35,3.69l.84,2.17c1.16,2.92,1.36,3.14,1.56,3.28a1.92,1.92,0,0,0,.89.25c.06,0,0,.19,0,.19ZM32,42.48l-1.3,3.58h2.62Z" transform="translate(14 14)"/><path class="a" d="M46,50.27c-.06,0-.06-.17,0-.19a2.5,2.5,0,0,0,1-.25c.17-.11.31-.36.31-3.28v-.92H41.69v.92c0,2.92.13,3.17.31,3.28a2.5,2.5,0,0,0,1,.25c.07,0,.07.19,0,.19H39.27c-.05,0-.06-.17,0-.19a2.56,2.56,0,0,0,1-.25c.19-.11.31-.36.31-3.28V44.38c0-2.92-.12-3.19-.31-3.28a2.56,2.56,0,0,0-1-.25c-.08,0-.07-.19,0-.19H43s0,.18,0,.19a2.5,2.5,0,0,0-1,.25c-.18.09-.31.36-.31,3.28v.7H47.3v-.7c0-2.92-.14-3.19-.31-3.28a2.5,2.5,0,0,0-1-.25c-.08,0-.08-.19,0-.19h3.76c.06,0,.06.18,0,.19a2.52,2.52,0,0,0-1,.25c-.17.09-.31.36-.31,3.28v2.17c0,2.92.14,3.17.31,3.28a2.52,2.52,0,0,0,1,.25c.07,0,.07.19,0,.19Z" transform="translate(14 14)"/><path class="a" d="M57.67,50.36a4.69,4.69,0,0,1-4.84-4.78,5,5,0,0,1,5.05-5,4.68,4.68,0,0,1,4.83,4.78A5,5,0,0,1,57.67,50.36Zm-.07-9.24c-2.66,0-3.53,2.12-3.53,4,0,2.42,1.52,4.66,3.9,4.66,2.64,0,3.51-2.12,3.51-4C61.48,43.36,60,41.12,57.6,41.12Z" transform="translate(14 14)"/><path class="a" d="M8.54,37.06a.12.12,0,0,0-.12.13.12.12,0,0,0,.12.12H61.89a.12.12,0,0,0,.13-.12.13.13,0,0,0-.13-.13Z" transform="translate(14 14)"/><path class="a" d="M8.53,50.27s0-.18,0-.19a3.21,3.21,0,0,0,1.15-.26c.18-.1.31-.35.31-3.27V44.38c0-2.92-.13-3.19-.31-3.28a3.53,3.53,0,0,0-1.15-.25c-.06,0-.06-.19,0-.19h4c.05,0,.06.17,0,.19a3.37,3.37,0,0,0-1.13.25c-.19.09-.32.36-.32,3.28v2.17c0,2.92.13,3.17.32,3.27a3.07,3.07,0,0,0,1.13.26c.07,0,.06.19,0,.19Z" transform="translate(14 14)"/></svg>